# xmcd
#
# Track frame offsets:
#	150
#	29240
#	57662
#	89107
#	114018
#
# Disc length: 1926 seconds
#
# Revision: 0
# Processed by: cddbd v1.4PL0 Copyright (c) Steve Scherf et al.
# Submitted via: audiograbber 1.81.01
#
DISCID=45078405
DTITLE=GROUNDHOGS - Live At Leeds
DYEAR=1971
DGENRE=Psychadelic Blues
TTITLE0=Cherry Red
TTITLE1=Garden
TTITLE2=Split Part 1
TTITLE3=Groundhogs Blues
TTITLE4=Eccentric Man
EXTD=Recorded Live At `Leeds Univesity`, april 13, 1971. U.K.\nTony T.S. McPhee
EXTD=Lead Guitar And Vocals\nPeter Cruickshank-Bass\nKen Pustelnik-Drums\nAKAR
EXTD=AMA oxo\nP.O. Box 27, 19100 La Spezia\nFax 0039-187-767647\nMade In Italy
EXTT0=T.S. McPhee
EXTT1=T.S. McPhee
EXTT2=T.S. McPhee
EXTT3=Trad arr. T.S. McPhee
EXTT4=T.S. McPhee
PLAYORDER=
